<?xml version="1.0" standalone="no"?>
<!DOCTYPE svg PUBLIC "-//W3C//DTD SVG 20010904//EN"
 "http://www.w3.org/TR/2001/REC-SVG-20010904/DTD/svg10.dtd">
<svg version="1.0" xmlns="http://www.w3.org/2000/svg"
 width="16.000000pt" height="16.000000pt" viewBox="0 0 16.000000 16.000000"
 preserveAspectRatio="xMidYMid meet">
<metadata>
Created by potrace 1.11, written by Peter Selinger 2001-2013
</metadata>
<g transform="translate(0.000000,16.000000) scale(0.002980,-0.002980)"
fill="#000000" stroke="none">
<path d="M2550 5103 c-64 -12 -67 -37 -25 -168 l23 -70 -2 -2050 c-1 -1128 -5
-2061 -9 -2075 -11 -37 -10 -129 2 -143 5 -7 25 -49 44 -94 31 -74 151 -263
167 -263 9 0 37 64 49 115 7 26 12 801 15 2235 3 1207 8 2212 11 2232 4 21 2
61 -4 90 -16 76 -92 153 -176 179 -33 10 -62 18 -65 17 -3 0 -16 -3 -30 -5z"/>
<path d="M4450 5098 c-60 -13 -224 -47 -255 -52 -16 -3 -46 -8 -65 -11 -19 -3
-42 -8 -50 -10 -8 -2 -33 -6 -55 -10 -22 -3 -72 -12 -110 -20 -75 -15 -116
-21 -205 -30 -30 -3 -91 -10 -135 -16 -44 -5 -96 -12 -115 -14 -66 -8 -225
-25 -266 -29 -58 -5 -149 -33 -164 -51 -22 -27 17 -76 95 -117 90 -47 161 -58
265 -43 49 7 289 43 330 49 14 2 57 9 95 15 39 6 84 13 101 16 31 5 32 4 44
-44 11 -45 9 -105 -6 -231 -3 -25 -7 -52 -9 -60 -2 -8 -7 -31 -10 -50 -3 -19
-8 -48 -11 -65 -10 -50 -92 -304 -134 -410 -21 -55 -60 -154 -86 -220 -65
-168 -158 -365 -250 -535 -31 -58 -62 -115 -68 -127 -6 -13 -14 -23 -18 -23
-5 0 -8 -4 -8 -9 0 -5 -27 -55 -60 -111 -72 -121 -124 -222 -144 -277 l-14
-41 43 14 c66 19 85 32 148 97 34 36 61 57 67 51 5 -5 41 -85 80 -179 39 -93
84 -198 101 -233 16 -35 29 -65 29 -67 0 -2 21 -47 46 -102 46 -97 106 -242
139 -338 l18 -50 -35 -65 c-20 -36 -75 -137 -123 -225 -93 -172 -216 -382
-377 -645 -56 -91 -136 -222 -179 -292 -63 -104 -109 -206 -109 -242 0 -3 29
7 64 22 75 32 176 121 262 232 32 41 61 77 64 80 3 3 19 23 36 45 16 22 35 46
41 53 33 35 213 320 311 493 146 258 146 259 152 259 3 0 20 -39 39 -88 19
-48 60 -141 92 -207 31 -66 78 -174 104 -240 26 -66 52 -131 58 -145 6 -14 11
-27 12 -30 0 -3 16 -49 34 -103 26 -77 39 -102 64 -121 85 -64 322 -179 569
-277 47 -18 48 -18 58 2 10 17 4 26 -46 72 -31 29 -89 95 -129 147 -41 52 -87
111 -104 130 -49 55 -194 276 -246 375 -26 50 -74 133 -106 186 -33 53 -88
161 -122 240 -35 79 -82 180 -104 224 l-40 80 24 43 c13 24 50 118 83 210 68
197 81 230 150 381 28 63 76 196 107 295 30 100 72 235 93 301 36 109 50 164
63 235 3 14 6 30 8 35 1 6 -1 27 -5 47 -9 42 -51 85 -156 160 -54 38 -74 47
-117 50 -29 1 -53 0 -53 -5 0 -4 13 -34 29 -66 29 -56 30 -64 27 -162 -2 -57
-6 -111 -10 -119 -3 -8 -7 -26 -10 -40 -14 -80 -63 -265 -107 -404 -53 -166
-246 -666 -258 -666 -4 0 -23 30 -42 68 -19 37 -54 103 -77 147 -23 44 -77
154 -121 245 -87 180 -164 325 -188 352 -14 15 -7 28 69 140 130 190 219 356
340 636 124 289 313 790 322 855 3 23 8 52 11 65 4 22 -26 94 -50 118 -6 7
-23 26 -37 42 -25 30 -130 82 -164 82 -37 0 -6 8 56 15 36 4 74 9 84 11 11 2
56 8 100 14 45 6 97 13 116 17 19 3 100 7 180 9 129 2 153 6 218 30 39 14 72
29 72 33 0 3 -32 39 -70 79 -100 105 -191 143 -290 120z"/>
<path d="M1603 5092 c-12 -2 -20 -9 -17 -15 5 -16 12 -66 19 -154 7 -81 -13
-159 -86 -331 -23 -53 -64 -153 -91 -221 -62 -158 -194 -390 -360 -635 -300
-441 -508 -762 -508 -782 0 -9 41 6 115 42 107 51 263 213 490 509 38 50 89
117 115 150 26 33 75 110 110 170 34 61 117 201 182 313 71 121 139 251 167
321 27 64 65 143 85 175 25 39 42 82 53 134 l16 77 -33 55 c-73 123 -182 204
-257 192z"/>
<path d="M1722 3878 c1 -99 -2 -122 -25 -185 -26 -72 -134 -297 -183 -383
-198 -345 -374 -610 -679 -1020 -91 -123 -155 -219 -155 -235 0 -3 17 -4 37
-3 50 3 191 96 274 180 158 159 213 225 417 493 55 73 148 207 219 320 82 128
203 332 203 342 0 6 137 278 151 301 35 57 -134 273 -233 297 l-27 7 1 -114z"/>
<path d="M1805 2918 c19 -61 25 -276 8 -334 -39 -134 -78 -247 -112 -327 -76
-177 -244 -512 -324 -645 -19 -31 -46 -76 -58 -98 -140 -245 -306 -518 -345
-569 -17 -22 -58 -76 -90 -120 -32 -44 -112 -149 -177 -233 -120 -155 -181
-241 -210 -298 l-16 -31 42 5 c28 3 65 20 114 53 76 52 269 236 370 354 153
179 533 718 597 848 22 42 41 76 43 74 5 -6 86 -304 118 -437 2 -8 15 -59 29
-112 13 -53 27 -120 31 -150 4 -29 13 -91 20 -138 8 -47 17 -102 19 -122 3
-21 10 -57 15 -80 6 -24 12 -56 15 -73 5 -27 18 -81 46 -185 13 -50 55 -53
110 -9 41 33 49 47 55 102 3 18 7 48 10 68 10 59 8 169 -4 244 -7 39 -14 84
-16 100 -3 17 -15 66 -26 110 -84 317 -194 585 -299 730 l-60 84 85 169 c47
94 85 173 85 176 0 3 13 33 29 68 52 110 187 440 202 490 8 28 4 39 -23 85
-33 54 -147 165 -202 196 -36 20 -87 23 -81 5z"/>
</g>
</svg>
